<svg xmlns="http://www.w3.org/2000/svg" version="1.1" width="320" height="320" viewBox="0 0 320 320">
    <g fill="#ffffff">
        <path d="M0 0 C0.7465686 0.24833588 1.49313721 0.49667175 2.2623291 0.75253296 C3.83010601 1.27793203 5.39646307 1.80758551 6.96142578 2.34130859 C9.33152546 3.14429584 11.70992397 3.9180921 14.08984375 4.69140625 C28.90742301 9.63760653 36.24151413 16.6191176 43.53125 30.4609375 C47.14495118 37.95559107 48.94604005 45.29442962 49.84375 53.5234375 C50.17375 53.8534375 50.50375 54.1834375 50.84375 54.5234375 C54.56562919 50.41476126 54.56562919 50.41476126 56.12890625 45.25390625 C55.56307378 36.71121609 51.85599684 28.70677374 47.46875 21.4609375 C46.9325 20.4915625 46.39625 19.5221875 45.84375 18.5234375 C46.33875 17.0384375 46.33875 17.0384375 46.84375 15.5234375 C50.49116372 16.66428202 54.13639627 17.81194289 57.78125 18.9609375 C58.82216797 19.28642578 59.86308594 19.61191406 60.93554688 19.94726562 C61.92490234 20.25986328 62.91425781 20.57246094 63.93359375 20.89453125 C64.85003662 21.18255615 65.76647949 21.47058105 66.71069336 21.76733398 C68.84375 22.5234375 68.84375 22.5234375 69.84375 23.5234375 C70.47857967 27.26187889 70.84375 30.72523907 70.84375 34.5234375 C69.453125 36.05078125 69.453125 36.05078125 67.59375 37.4609375 C64.46527766 39.86076991 61.9786247 42.17738664 59.84375 45.5234375 C59.47213293 49.09161525 59.47213293 49.09161525 59.78125 52.9609375 C60.19760306 66.11769408 57.27378807 77.62520031 49.78125 88.5234375 C47.10077739 91.29037697 45.17412673 92.28465193 41.40625 92.9609375 C38.84375 92.5234375 38.84375 92.5234375 36.65625 90.0234375 C34.1917703 87.26681659 34.1917703 87.26681659 31.60351562 87.55395508 C30.34571289 87.70320435 30.34571289 87.70320435 29.0625 87.85546875 C24.42032772 87.95712522 24.42032772 87.95712522 22.02026367 86.15185547 C20.34478314 84.08666034 18.93089113 81.97230753 17.53125 79.7109375 C16.73110474 78.51404297 16.73110474 78.51404297 15.91479492 77.29296875 C14.78445849 75.59820655 13.66830267 73.89391344 12.56542969 72.18115234 C10.2423079 68.59500604 7.82254772 65.07901618 5.3996582 61.55981445 C4.25350181 59.89234229 3.11380702 58.22040684 1.98120117 56.54370117 C1.21126831 55.4044519 1.21126831 55.4044519 0.42578125 54.2421875 C-0.02563232 53.57123047 -0.4770459 52.90027344 -0.94213867 52.20898438 C-2.18696024 50.38574324 -2.18696024 50.38574324 -4.15625 48.5234375 C-4.4296875 46.3515625 -4.4296875 46.3515625 -4.53125 43.7734375 C-4.96947688 38.93902989 -5.70523856 36.14279096 -9.15625 32.5234375 C-10.68080629 31.79878552 -12.22533243 31.11554646 -13.78125 30.4609375 C-21.05383045 27.16303174 -24.72056547 20.87916215 -29.15625 14.5234375 C-30.21832669 13.16893881 -31.28071878 11.8146872 -32.34375 10.4609375 C-34.15625 7.5234375 -34.15625 7.5234375 -34.1640625 5.5390625 C-32.56809502 2.34712754 -30.05119939 1.72381048 -26.84375 0.3359375 C-25.69261719 -0.17324219 -24.54148438 -0.68242187 -23.35546875 -1.20703125 C-15.09422225 -4.48530367 -8.19814655 -2.75967741 0 0 Z M47.84375 59.5234375 C45.85303365 62.91262425 43.8782623 66.3108391 41.90625 69.7109375 C41.34228516 70.67064453 40.77832031 71.63035156 40.19726562 72.61914062 C39.65908203 73.55048828 39.12089844 74.48183594 38.56640625 75.44140625 C38.06890869 76.29500732 37.57141113 77.1486084 37.05883789 78.02807617 C35.83019043 80.55128407 35.2615201 82.75922805 34.84375 85.5234375 C35.83375 85.5234375 36.82375 85.5234375 37.84375 85.5234375 C38.17375 86.1834375 38.50375 86.8434375 38.84375 87.5234375 C41.50096974 86.85913257 43.33603228 86.18647677 45.03125 83.97265625 C48.40477387 78.18061343 48.98847572 73.46534575 48.90625 66.7734375 C48.90173828 66.07605469 48.89722656 65.37867188 48.89257812 64.66015625 C48.8808502 62.94787947 48.86291653 61.23564717 48.84375 59.5234375 C48.51375 59.5234375 48.18375 59.5234375 47.84375 59.5234375 Z" transform="translate(214.15625,177.4765625)"/>
        <path d="M0 0 C10.96651787 1.82775298 21.54614905 6.52482813 29 15 C32.71027873 20.2386606 33.63457928 24.65420722 33 31 C32 33.5 32 33.5 31 35 C29.35 34.67 27.7 34.34 26 34 C26.33 33.01 26.66 32.02 27 31 C27.66 31 28.32 31 29 31 C26.02965746 23.77407056 22.99826659 18.75970705 16 15 C13.04457209 13.7930473 10.08569652 12.81428103 7 12 C12.20476837 20.12624599 17.72117556 27.66554133 24 35 C24.70511719 35.82886719 25.41023438 36.65773437 26.13671875 37.51171875 C29.08759735 40.91225504 31.98479723 44.11381253 35.5 46.9375 C36.325 47.618125 37.15 48.29875 38 49 C38 49.66 38 50.32 38 51 C37.34 51 36.68 51 36 51 C35.67 53.64 35.34 56.28 35 59 C29.16080675 61.24271042 23.28289937 63.24896809 17.3203125 65.13671875 C15.97935013 65.56317436 15.97935013 65.56317436 14.61129761 65.99824524 C12.73762027 66.59339465 10.86360179 67.18747101 8.98925781 67.78051758 C6.11144631 68.69179185 3.23537246 69.60840948 0.359375 70.52539062 C-1.4660436 71.10448901 -3.29156094 71.68327628 -5.1171875 72.26171875 C-5.97859344 72.53666672 -6.83999939 72.81161469 -7.72750854 73.09489441 C-8.52238678 73.34548111 -9.31726501 73.59606781 -10.13623047 73.85424805 C-10.8360202 74.07614304 -11.53580994 74.29803802 -12.25680542 74.5266571 C-14 75 -14 75 -16 75 C-16.21914062 74.46890625 -16.43828125 73.9378125 -16.6640625 73.390625 C-18.9316288 68.33929845 -20.81964071 65.44889712 -26 63 C-32.27952133 61.1787491 -37.90335254 60.07360922 -44 63 C-48.29890661 67.01231283 -50.69065572 71.0475244 -51 77 C-50.42698578 79.40234363 -50.42698578 79.40234363 -49.53125 81.76171875 C-49.24830078 82.55924561 -48.96535156 83.35677246 -48.67382812 84.1784668 C-48.45146484 84.77957275 -48.22910156 85.38067871 -48 86 C-51.74385814 87.37158751 -55.49591197 88.71919132 -59.25 90.0625 C-60.31347656 90.45244141 -61.37695312 90.84238281 -62.47265625 91.24414062 C-63.49746094 91.60830078 -64.52226562 91.97246094 -65.578125 92.34765625 C-66.99206543 92.85824585 -66.99206543 92.85824585 -68.43457031 93.37915039 C-71.1421607 94.03440375 -72.43977134 94.02598949 -75 93 C-76.875 91.25 -76.875 91.25 -78 89 C-76.7681815 84.73601288 -74.43263372 81.74953322 -71.6875 78.3125 C-67.47940367 72.97433626 -63.45533793 67.5278089 -59.5 62 C-55.68751329 56.68153101 -51.83420141 51.41230328 -47.8125 46.25 C-44.52699271 42.02050266 -41.34820295 37.74150242 -38.25 33.375 C-37.64744385 32.53702881 -37.64744385 32.53702881 -37.03271484 31.68212891 C-34.48092659 28.12619668 -32.009701 24.52736059 -29.57421875 20.890625 C-28.36266518 19.13494306 -27.15042989 17.37973137 -25.9375 15.625 C-25.10750488 14.34761963 -25.10750488 14.34761963 -24.26074219 13.04443359 C-20.24427625 7.32255416 -20.24427625 7.32255416 -16.8112793 6.43261719 C-14.45969958 6.39772358 -12.31837082 6.61561489 -10 7 C-8.77152344 7.144375 -7.54304688 7.28875 -6.27734375 7.4375 C-5.17519531 7.623125 -4.07304687 7.80875 -2.9375 8 C-1.24947266 8.2784375 -1.24947266 8.2784375 0.47265625 8.5625 C1.30667969 8.706875 2.14070313 8.85125 3 9 C2.505 8.071875 2.01 7.14375 1.5 6.1875 C0 3 0 3 0 0 Z" transform="translate(249,60)"/>
        <path d="M0 0 C1.68928328 2.25853174 3.26094604 4.52375485 4.8125 6.875 C5.80276371 8.34634868 6.79503159 9.81635003 7.7890625 11.28515625 C8.31145508 12.05746582 8.83384766 12.82977539 9.37207031 13.62548828 C12.07636598 17.56999632 14.87986838 21.44119138 17.6875 25.3125 C18.5062561 26.44860718 18.5062561 26.44860718 19.34155273 27.60766602 C21.72812633 30.91107052 24.12944208 34.19322854 26.63671875 37.40625 C27.74466797 38.84484375 27.74466797 38.84484375 28.875 40.3125 C29.51179688 41.11300781 30.14859375 41.91351563 30.8046875 42.73828125 C32 45 32 45 31.79296875 47.55859375 C31.10123028 49.68833042 30.34245483 51.70401516 29.4375 53.75 C27.13104518 59.82442558 27.00003027 65.37820722 29.625 71.375 C31.76212015 75.12616894 33.79353145 76.70570198 38 78 C42.42410891 78.45197183 46.68541294 78.07864676 51 77 C51 76.34 51 75.68 51 75 C51.99 75 52.98 75 54 75 C55.83167256 77.19385092 57.45169814 79.34046556 59.0625 81.6875 C59.50916016 82.31333984 59.95582031 82.93917969 60.41601562 83.58398438 C62.7365258 86.89652132 64.90894666 90.05812988 66 94 C64.625 96.3125 64.625 96.3125 63 98 C55.66355279 97.43259879 49.11914721 95.28317925 42.1640625 92.95703125 C40.9307016 92.55095139 39.6973407 92.14487152 38.42660522 91.72648621 C35.15331624 90.64862909 31.88301841 89.56196505 28.61328125 88.47338867 C25.34683973 87.38764982 22.07760934 86.31038033 18.80859375 85.23242188 C13.79709563 83.57921637 8.78872592 81.91682216 3.78222656 80.24853516 C-0.39077615 78.85950327 -4.56879792 77.49069112 -8.75878906 76.15380859 C-9.60140289 75.88219406 -10.44401672 75.61057953 -11.31216431 75.33073425 C-12.82067098 74.84550548 -14.33140213 74.36710804 -15.84481812 73.89741516 C-19.22607721 72.80212316 -21.87047184 71.93897331 -24 69 C-29.31634578 54.23237284 -27.40833779 36.47344943 -22 22 C-20.18896734 18.26474515 -18.0895316 14.74511812 -15.90234375 11.21875 C-13.92395411 7.87133097 -12.45794155 4.5971642 -11 1 C-9.54182203 0.83197949 -8.0834516 0.66562857 -6.625 0.5 C-5.81289062 0.4071875 -5.00078125 0.314375 -4.1640625 0.21875 C-2 0 -2 0 0 0 Z" transform="translate(84,55)"/>
        <path d="M0 0 C0.99 0 1.98 0 3 0 C3.2475 0.639375 3.495 1.27875 3.75 1.9375 C4.96621634 4.49019039 4.96621634 4.49019039 9 5 C9 30.74 9 56.48 9 83 C5 81 5 81 2.25 78.5625 C-4.72685825 72.73983806 -11.82322684 72.65481168 -20.51171875 72.6015625 C-24.19096491 73.02181234 -25.96216541 73.98896414 -29 76 C-29.99 76 -30.98 76 -32 76 C-33.37255859 74.34765625 -33.37255859 74.34765625 -34.7734375 72.0625 C-37.85326151 67.2046137 -41.18867922 62.60978157 -44.625 58 C-45.84666152 56.33486087 -47.06800909 54.66949136 -48.2890625 53.00390625 C-50.69110523 49.73947838 -53.1440762 46.52628719 -55.6484375 43.33984375 C-56.76601108 41.87268984 -57.88321563 40.40525474 -59 38.9375 C-59.80171631 37.95813477 -59.80171631 37.95813477 -60.61962891 36.95898438 C-62.87060139 33.94549972 -64.05806215 32.12233334 -63.859375 28.28173828 C-63.36937901 25.79282113 -62.77568175 23.41381538 -62 21 C-61.05084717 20.81993408 -61.05084717 20.81993408 -60.08251953 20.63623047 C-27.96657049 15.32211792 -27.96657049 15.32211792 0 0 Z" transform="translate(150,24)"/>
        <path d="M0 0 C0.66 0.99 1.32 1.98 2 3 C4.05925139 3.72382467 4.05925139 3.72382467 6 4 C5.86722656 4.71542969 5.73445313 5.43085937 5.59765625 6.16796875 C1.64106534 28.49238315 2.67839009 50.79428098 7 73 C3.535 73.495 3.535 73.495 0 74 C0 74.99 0 75.98 0 77 C-12.96069781 75.829937 -26.99836331 71.69240977 -36 62 C-43.7503926 55.20167099 -52.42438576 50.72190846 -62 47 C-60.81560185 44.30818602 -59.34758506 42.12450775 -57.5625 39.8125 C-53.30598134 33.88601974 -51.95583922 27.9126798 -51.421875 20.69921875 C-51.3403418 19.62889404 -51.25880859 18.55856934 -51.17480469 17.45581055 C-51.11711914 16.64539307 -51.05943359 15.83497559 -51 15 C-45.27092989 13.04252323 -39.5417604 11.08533772 -33.8125 9.12841797 C-31.86488172 8.4631328 -29.91729027 7.7977691 -27.96972656 7.13232422 C-25.1647847 6.17394521 -22.35974538 5.21585189 -19.5546875 4.2578125 C-18.68883026 3.96190216 -17.82297302 3.66599182 -16.93087769 3.3611145 C-15.327446 2.81359404 -13.72354669 2.26744021 -12.11907959 1.72296143 C-10.25683315 1.08762317 -8.39970285 0.43733019 -6.54345703 -0.21533203 C-3.80521678 -1.0600915 -2.58859514 -1.20184775 0 0 Z" transform="translate(286,122)"/>
        <path d="M0 0 C-0.03480469 1.29035156 -0.06960937 2.58070313 -0.10546875 3.91015625 C-0.13362342 5.62759106 -0.16092177 7.34504007 -0.1875 9.0625 C-0.21263672 9.91005859 -0.23777344 10.75761719 -0.26367188 11.63085938 C-0.3377287 18.02443209 0.36852748 22.85879915 4.61328125 27.92578125 C11.84735915 33.82945402 17.84288152 34.29328849 27 34 C25.44464781 38.78429971 22.73716104 42.21555266 19.6875 46.125 C11.30189915 57.07630591 3.63160055 68.51590878 -4 80 C-7.51317689 80.17553009 -10.62206831 80.03089376 -14 79 C-16.57740227 76.36584342 -17.88316544 73.27706429 -19.375 69.9375 C-20.28954725 68.09789347 -21.21423158 66.2632954 -22.1484375 64.43359375 C-22.61475586 63.51562012 -23.08107422 62.59764648 -23.56152344 61.65185547 C-30.15332851 49.49975317 -40.54724324 36.93603749 -51.3203125 28.29296875 C-52.20460937 27.53628906 -53.08890625 26.77960938 -54 26 C-54 25.34 -54 24.68 -54 24 C-53.34 23.67 -52.68 23.34 -52 23 C-52 20.69 -52 18.38 -52 16 C-22.82943565 6.2135588 -22.82943565 6.2135588 -10.8125 2.375 C-10.04897217 2.1279834 -9.28544434 1.8809668 -8.4987793 1.62646484 C-5.54882082 0.6934579 -3.11468732 0 0 0 Z" transform="translate(88,185)"/>
        <path d="M0 0 C0.99 0 1.98 0 3 0 C4.55800681 1.88207222 5.89923725 3.72468661 7.25 5.75 C8.12495775 7.02005639 9.00274947 8.28816338 9.8828125 9.5546875 C10.36911133 10.25561523 10.85541016 10.95654297 11.35644531 11.67871094 C14.51954496 16.14614282 17.83021951 20.50430918 21.125 24.875 C21.80079102 25.7731543 22.47658203 26.67130859 23.17285156 27.59667969 C24.78048522 29.73219306 26.38949791 31.86664953 28 34 C27.6803125 34.59425781 27.360625 35.18851562 27.03125 35.80078125 C25.83443193 38.08693326 25.83443193 38.08693326 25.5 41.1875 C25.335 42.115625 25.17 43.04375 25 44 C22.38020058 45.30989971 19.7573912 45.50272837 16.88232422 45.89941406 C-1.86306382 48.52048292 -21.18432924 54.3486299 -37 65 C-37.66 65 -38.32 65 -39 65 C-39.45375 64.525625 -39.9075 64.05125 -40.375 63.5625 C-42.1308406 61.61483273 -42.1308406 61.61483273 -46 61 C-46 41.53 -46 22.06 -46 2 C-45.34 2 -44.68 2 -44 2 C-44 2.66 -44 3.32 -44 4 C-43.4328125 4.27714844 -42.865625 4.55429688 -42.28125 4.83984375 C-39.19605656 6.4088548 -36.21613865 8.14924876 -33.21875 9.87890625 C-26.66634768 13.18971517 -18.35622345 12.9984337 -11.32421875 11.38671875 C-5.99704774 9.35433586 -3.57606181 6.69511804 -1.0703125 1.609375 C-0.71710938 1.07828125 -0.36390625 0.5471875 0 0 Z" transform="translate(208,231)"/>
        <path d="M0 0 C3.64709451 0.94786794 4.83185335 1.74626368 6.94921875 4.94140625 C7.54886019 6.13852376 8.12753184 7.34631916 8.6875 8.5625 C9.13802734 9.51249878 9.13802734 9.51249878 9.59765625 10.48168945 C15.89494016 24.15424918 13.96098585 36.01322055 9 50 C2.44951216 65.76343203 -10.33659611 76.71343541 -25.59375 83.62890625 C-35.32462346 87.2779838 -44.69526716 87.87015801 -55 88 C-56.07525194 85.34771188 -57.09456151 82.71631546 -58 80 C-56.40158883 77.37381965 -54.7599742 74.96481481 -52.9375 72.5 C-52.39601318 71.75097412 -51.85452637 71.00194824 -51.29663086 70.23022461 C-49.54268279 67.81144337 -47.77313289 65.40474534 -46 63 C-44.84634299 61.42839362 -43.69269707 59.8567791 -42.5390625 58.28515625 C-40.20063737 55.10541215 -37.85561745 51.93063507 -35.5078125 48.7578125 C-29.93846852 41.22028512 -24.47508053 33.60609014 -19 26 C-16.68866505 22.79082536 -14.37586948 19.58270821 -12.0625 16.375 C-11.54292725 15.65304443 -11.02335449 14.93108887 -10.48803711 14.18725586 C-7.04717259 9.4159459 -3.54539978 4.69413136 0 0 Z" transform="translate(143,186)"/>
        <path d="M0 0 C4.03204983 0.42894147 7.85151016 1.12065024 11.75 2.25 C12.48734375 2.46140625 13.2246875 2.6728125 13.984375 2.890625 C18.48109436 5.36556356 19.9674714 11.0960184 22 15.5625 C29.82460171 31.80682002 43.98500462 41.71297125 60 49 C61.485 49.495 61.485 49.495 63 50 C60.764673 55.28350019 57.63209875 59.60403954 52.27392578 61.79516602 C50.83777127 62.30090618 49.39430653 62.78622133 47.9453125 63.25390625 C47.16670868 63.52210678 46.38810486 63.79030731 45.58590698 64.06663513 C43.10464336 64.91662283 40.61544358 65.73985056 38.125 66.5625 C36.49159431 67.11739755 34.85877514 67.67402474 33.2265625 68.23242188 C29.2516308 69.58773689 25.26820709 70.91582788 21.28186035 72.23712158 C19.05001864 72.98327762 16.8246572 73.74616323 14.60058594 74.51513672 C13.57310745 74.86728493 13.57310745 74.86728493 12.52487183 75.22654724 C10.68198185 75.85868028 8.84068518 76.49545305 6.99951172 77.13256836 C4 78 4 78 0 78 C-0.33 77.01 -0.66 76.02 -1 75 C-2.65 74.67 -4.3 74.34 -6 74 C-5.90912109 73.32646484 -5.81824219 72.65292969 -5.72460938 71.95898438 C-3.19546153 52.93201061 -2.43778941 35.34237737 -4.72998047 16.26611328 C-5.17713854 12.51338164 -5.58592605 8.75650872 -6 5 C-5.195625 4.731875 -4.39125 4.46375 -3.5625 4.1875 C-2.716875 3.795625 -1.87125 3.40375 -1 3 C-0.67 2.01 -0.34 1.02 0 0 Z" transform="translate(35,121)"/>
        <path d="M0 0 C4.46827876 1.37901493 8.50376452 3.16984484 12.6875 5.25 C29.13205504 13.12351634 46.87832944 17.3819937 65 19 C64.95875 20.0725 64.9175 21.145 64.875 22.25 C64.9885825 25.65747485 65.21273364 27.20739631 67 30 C66.01 31.485 66.01 31.485 65 33 C62.10103898 33.25942835 59.33872805 33.36137388 56.4375 33.375 C39.72079507 33.90709671 22.65306695 38.96983698 10.69921875 51.28515625 C9.80847656 52.18105469 8.91773438 53.07695313 8 54 C7.34 54 6.68 54 6 54 C5.73058594 54.58007812 5.46117187 55.16015625 5.18359375 55.7578125 C3.99064486 58.01772228 2.64347919 59.87162179 1.0625 61.875 C-1.40317086 65.09423775 -3.32915324 68.28700721 -5 72 C-5.66 72 -6.32 72 -7 72 C-7.33 49.89 -7.66 27.78 -8 5 C-5.69 4.01 -3.38 3.02 -1 2 C-0.67 1.34 -0.34 0.68 0 0 Z" transform="translate(169,25)"/>
        <path d="M0 0 C-1.64109799 5.3044522 -5.0114403 9.32032553 -8.3125 13.6875 C-9.59063608 15.39914821 -10.86796157 17.11140197 -12.14453125 18.82421875 C-12.79115723 19.68966309 -13.4377832 20.55510742 -14.10400391 21.44677734 C-16.94256778 25.26929872 -19.7229314 29.13269073 -22.5 33 C-26.40658385 38.43293813 -30.34930313 43.83614654 -34.33520508 49.21118164 C-45.53681149 63.55157136 -45.53681149 63.55157136 -55 79 C-55.99 79 -56.98 79 -58 79 C-62.69228856 63.24731699 -61.81171223 48.06254805 -54.4375 33.25 C-44.90033508 17.31478725 -30.63644018 7.54548006 -13.25 1.75 C-8.88661625 0.74306529 -4.4932605 0 0 0 Z" transform="translate(226,66)"/>
        <path d="M0 0 C9.09892539 2.35054381 18.01793386 5.19755923 26.94921875 8.10546875 C28.45800176 8.59464915 29.96685826 9.08360291 31.4757843 9.57234192 C35.41043152 10.84743025 39.34408533 12.12555586 43.27752686 13.40435791 C47.30615697 14.7134969 51.33573745 16.01970386 55.36523438 17.32617188 C63.2444126 19.88127673 71.1225418 22.43959719 79 25 C78 28 78 28 75.03515625 29.82421875 C62.55852192 35.94292335 50.66724038 37.14036844 37.1875 33.4375 C19.90847629 27.24148645 9.99204646 17.9880697 0 3 C0 2.01 0 1.02 0 0 Z" transform="translate(64,130)"/>
        <path d="M0 0 C0.66 0 1.32 0 2 0 C2.93512434 2.80537303 3.12182907 4.48165364 3.11352539 7.37963867 C3.11344986 8.26032516 3.11337433 9.14101166 3.11329651 10.04838562 C3.10813522 10.99534805 3.10297394 11.94231049 3.09765625 12.91796875 C3.0962413 13.89034988 3.09482635 14.86273102 3.09336853 15.86457825 C3.08776817 18.97225004 3.07521562 22.07984996 3.0625 25.1875 C3.05748505 27.29361875 3.05292213 29.39973863 3.04882812 31.50585938 C3.03779862 36.67060064 3.02053375 41.83528813 3 47 C-3.625 49.875 -3.625 49.875 -7 51 C-9.65234375 49.8125 -9.65234375 49.8125 -12.9375 48 C-21.8804091 43.24155516 -31.40250382 40.16093029 -41 37 C-41 36.34 -41 35.68 -41 35 C-39.88882813 34.5153125 -38.77765625 34.030625 -37.6328125 33.53125 C-28.82537683 29.59965986 -21.12872477 25.63349343 -14 19 C-13.28457031 18.37480469 -12.56914062 17.74960937 -11.83203125 17.10546875 C-6.43892711 12.13733717 -3.18561152 6.56429041 0 0 Z" transform="translate(157,244)"/>
        <path d="M0 0 C3.3714789 1.1238263 3.74416248 1.68389856 5.62890625 4.52734375 C6.10650391 5.23697266 6.58410156 5.94660156 7.07617188 6.67773438 C7.56666016 7.42345703 8.05714844 8.16917969 8.5625 8.9375 C9.54117238 10.40614656 10.52156765 11.87364689 11.50390625 13.33984375 C11.93517822 13.99331787 12.3664502 14.64679199 12.81079102 15.32006836 C14.02979977 17.14219088 14.02979977 17.14219088 16 19 C16 19.99 16 20.98 16 22 C15.071875 22.391875 14.14375 22.78375 13.1875 23.1875 C9.66264937 25.19182683 8.45147388 26.24324407 7 30 C7.12319745 33.57272597 7.23309287 35.99968635 9.4375 38.875 C12.67784932 41.20805151 15.0350403 41.32367018 19 41 C21.53785617 39.33726664 21.9318384 38.26644989 22.6875 35.3125 C22.790625 34.549375 22.89375 33.78625 23 33 C23.99 33 24.98 33 26 33 C26.58540925 42.9519573 26.58540925 42.9519573 23 47 C17.7296135 50.90008601 13.50418789 51.94732399 7 51 C0.22542777 48.8183581 -4.97324025 45.37822636 -8.3125 39 C-12.55636956 29.57896176 -11.1410283 20.59684391 -8 11 C-6.0625 7.5625 -6.0625 7.5625 -4 5 C-3.2575 4.05125 -2.515 3.1025 -1.75 2.125 C-1.1725 1.42375 -0.595 0.7225 0 0 Z" transform="translate(176,185)"/>
        <path d="M0 0 C1.35434686 0.89861877 2.66487095 1.86294288 3.9609375 2.84375 C2.35083826 7.99809286 -0.84504574 11.82253535 -4.1015625 16.03125 C-5.19792653 17.46123467 -6.29304015 18.89217917 -7.38671875 20.32421875 C-7.87148682 20.95223389 -8.35625488 21.58024902 -8.85571289 22.22729492 C-10.10988479 23.84582569 -10.10988479 23.84582569 -11.0390625 25.84375 C-12.0290625 25.51375 -13.0190625 25.18375 -14.0390625 24.84375 C-14.72846059 22.51703146 -15.39373172 20.18307406 -16.0390625 17.84375 C-17.99709328 15.28979681 -18.90578128 14.88817707 -22.0390625 13.84375 C-26.77179736 13.34862987 -26.77179736 13.34862987 -30.9140625 15.21875 C-33.38871927 18.79325422 -33.41837854 21.51954718 -33.0390625 25.84375 C-30.78546555 28.17505719 -29.12690525 28.81446908 -26.0390625 29.84375 C-26.0390625 30.50375 -26.0390625 31.16375 -26.0390625 31.84375 C-32.10198864 32.26188284 -35.23614238 31.97649522 -40.0390625 27.84375 C-43.38633372 24.05017595 -43.56361953 20.34383942 -43.375 15.46875 C-42.68727872 10.09492789 -41.13952715 5.80304289 -37.12109375 2.0546875 C-25.27278371 -6.45931936 -12.69688425 -7.19976578 0 0 Z" transform="translate(138.0390625,179.15625)"/>
        <path d="M0 0 C0.54969337 6.32147374 -0.72727972 11.52499341 -4 17 C-8.6838192 22.00588928 -14.07681629 25.53764327 -21 26 C-31.88843867 26.09061114 -41.02770562 23.55269994 -49 16 C-45.62746496 12.62746496 -40.97300544 11.81150044 -36.5 10.375 C-35.54351562 10.05015625 -34.58703125 9.7253125 -33.6015625 9.390625 C-27.93735951 7.56395791 -23.12978495 6.66586197 -17.17382812 7.07666016 C-14.57989969 6.98518514 -13.17105681 6.40612189 -11 5 C-10.34 4.01 -9.68 3.02 -9 2 C-5.81421574 0.71212977 -3.4448059 0 0 0 Z" transform="translate(227,140)"/>
        <path d="M0 0 C6.04002418 2.09147106 10.53996559 5.60641695 14 11 C18.4911268 21.12257877 16.85421249 29.96450334 13 40 C8.53418339 38.51139446 6.98992126 35.2725687 4.375 31.5 C3.87226563 30.81679687 3.36953125 30.13359375 2.8515625 29.4296875 C-0.28325316 24.92971019 -1.61739941 21.46509347 -1.80541992 15.96289062 C-2.13112474 12.67723603 -3.56598498 11.10509407 -6 9 C-7.99422795 8.63371323 -9.99453311 8.29868656 -12 8 C-13.9375 6.125 -13.9375 6.125 -15 4 C-14.67 3.01 -14.34 2.02 -14 1 C-9.77176265 -1.11411867 -4.59022078 -0.49624008 0 0 Z" transform="translate(140,105)"/>
    </g>
</svg>